<?xml version="1.0" standalone="no"?>
<!DOCTYPE svg PUBLIC "-//W3C//DTD SVG 20010904//EN"
 "http://www.w3.org/TR/2001/REC-SVG-20010904/DTD/svg10.dtd">
<svg version="1.0" xmlns="http://www.w3.org/2000/svg"
 width="1024.000000pt" height="1024.000000pt" viewBox="0 0 1024.000000 1024.000000"
 preserveAspectRatio="xMidYMid meet">

<g transform="translate(0.000000,1024.000000) scale(0.100000,-0.100000)"
fill="#000000" stroke="none">
<path d="M4118 8511 c-52 -11 -113 -54 -144 -101 -21 -32 -28 -56 -32 -113 -5
-83 12 -129 67 -181 l31 -30 0 -1285 c0 -813 4 -1292 10 -1301 5 -8 10 -12 10
-9 0 12 95 -11 138 -33 75 -38 131 -135 132 -228 0 -145 -126 -262 -261 -244
-83 12 -138 52 -177 129 l-20 40 31 45 c17 25 32 47 34 49 1 2 34 -26 72 -62
38 -37 72 -67 76 -67 23 0 78 37 90 61 32 60 25 73 -125 222 l-140 140 0 986
c-1 989 -5 1221 -21 1253 -7 12 -5 28 6 47 8 17 15 55 15 85 0 45 -5 60 -27
87 -50 59 -116 73 -184 39 -55 -28 -79 -71 -79 -140 0 -47 5 -61 30 -92 17
-20 46 -43 65 -49 l35 -13 0 -276 c-1 -151 1 -1032 3 -1956 l5 -1682 50 -48
c57 -56 76 -106 63 -167 -18 -77 -61 -120 -138 -138 -45 -10 -59 -10 -97 5
-56 22 -113 83 -122 133 -4 21 -2 56 5 83 12 45 64 110 88 110 11 0 13 194 13
1053 l0 1052 -42 20 c-52 25 -83 80 -74 130 8 42 46 88 86 105 l30 12 0 529 0
529 -67 -26 c-38 -14 -80 -30 -95 -36 l-28 -10 0 -234 0 -234 -65 0 -65 0 0
210 0 211 -92 -48 c-184 -95 -396 -282 -516 -456 -115 -167 -205 -400 -237
-614 -42 -284 -11 -569 105 -974 191 -664 568 -1411 1012 -2008 364 -488 778
-937 1103 -1193 309 -243 540 -246 836 -12 478 377 1004 1015 1446 1752 388
647 673 1384 752 1947 20 142 22 223 12 365 -30 388 -180 706 -458 971 -111
105 -296 229 -380 254 l-23 6 0 -180 0 -181 -70 0 -70 0 -2 213 -3 212 -90 32
c-49 17 -93 32 -97 32 -5 1 -8 -767 -8 -1706 l0 -1708 36 -29 c152 -121 45
-353 -148 -321 -54 9 -124 73 -138 126 -22 80 11 162 80 201 l41 23 -2 1959
-3 1960 39 13 c74 26 110 79 103 153 -9 86 -71 143 -156 142 -55 -2 -101 -30
-130 -80 -27 -49 -28 -86 -2 -137 16 -32 18 -45 10 -74 -6 -23 -10 -519 -10
-1358 l0 -1321 -52 -43 c-29 -24 -109 -92 -178 -150 -109 -93 -125 -111 -127
-139 -1 -18 -9 -41 -18 -50 -15 -16 -11 -22 40 -75 l55 -58 0 -673 0 -672 33
-20 c69 -43 91 -136 49 -205 -56 -89 -188 -88 -249 3 -38 55 -27 149 21 189
14 12 16 87 16 672 l0 659 -100 102 c-109 111 -127 145 -110 209 6 20 22 46
36 60 22 21 35 24 101 24 l76 1 111 96 c61 53 121 106 134 118 l22 21 0 1465
0 1466 38 43 c174 198 -43 478 -281 362 -67 -33 -99 -72 -121 -145 -19 -67 -8
-139 31 -195 29 -42 109 -93 161 -103 l32 -6 0 -967 0 -966 -118 -90 -117 -90
-3 -231 -2 -230 -120 -103 -120 -102 0 -720 0 -719 -70 0 -70 0 0 749 0 750
32 30 c18 17 72 63 120 103 l87 73 0 175 c1 96 4 204 8 240 l6 65 118 90 118
90 1 328 0 327 -240 0 -240 0 -2 283 -3 282 -87 3 -88 3 0 -2369 0 -2369 48
-31 c69 -44 106 -115 107 -202 0 -121 -67 -206 -181 -230 -72 -15 -124 -5
-181 33 -87 59 -123 170 -92 281 13 49 94 131 137 141 18 3 32 12 32 18 0 7 1
1211 3 2677 l2 2665 50 6 c173 21 273 191 201 345 -81 175 -326 190 -439 28
-44 -63 -49 -151 -12 -232 15 -34 32 -62 36 -62 5 0 9 -951 9 -2152 l-1 -2153
-115 -120 c-181 -188 -196 -214 -152 -270 24 -30 80 -58 100 -49 7 3 36 32 63
64 28 33 55 59 60 59 6 1 20 -14 32 -32 13 -17 30 -42 39 -54 15 -21 15 -25
-1 -50 -54 -85 -118 -124 -206 -124 -142 -1 -241 100 -243 246 -2 156 103 252
287 264 4 1 7 825 7 1831 l0 1830 -75 0 -75 0 -2 -1529 c-2 -1176 0 -1536 9
-1558 7 -15 12 -50 13 -76 0 -43 -4 -53 -34 -83 -29 -29 -41 -34 -79 -34 -111
0 -156 131 -72 210 l25 23 0 1519 0 1518 -47 0 c-27 0 -58 -3 -70 -6 l-23 -6
0 -695 0 -694 -25 -24 c-28 -29 -64 -32 -95 -7 l-22 17 0 800 c-1 440 0 905 0
1032 l2 233 28 6 c99 24 178 108 189 204 19 162 -128 295 -289 261z m1002
-146 c87 -45 78 -164 -14 -195 -44 -14 -77 -5 -112 31 -22 23 -29 39 -29 70 0
34 6 46 38 75 40 37 72 43 117 19z m1757 -1782 c64 -42 84 -147 38 -201 -70
-83 -181 -78 -235 11 -43 69 -12 153 70 195 48 24 85 23 127 -5z m-3512 -32
c112 -50 148 -191 73 -277 -37 -42 -69 -59 -125 -69 -74 -12 -162 44 -193 123
-30 77 13 182 92 221 52 26 100 26 153 2z m3495 -556 l0 -194 48 -45 c90 -84
95 -87 146 -77 85 16 151 -41 151 -129 0 -40 -5 -54 -29 -79 -38 -39 -78 -55
-121 -47 -42 8 -95 51 -95 76 0 11 -51 69 -120 136 l-120 117 0 219 0 218 70
0 70 0 0 -195z m-3464 -89 c40 -39 44 -48 44 -91 0 -36 -6 -56 -26 -82 -44
-58 -96 -75 -160 -51 -31 11 -34 9 -93 -43 l-61 -53 0 -184 0 -184 29 -27 c58
-54 47 -155 -22 -205 -69 -51 -183 -10 -208 74 -10 33 -9 47 5 85 10 25 27 51
38 59 19 13 20 24 18 181 0 91 2 193 6 226 l7 59 93 78 c52 42 94 84 94 92 1
26 24 58 60 85 25 19 46 25 83 25 45 0 54 -4 93 -44z m3724 -730 c110 -58 136
-183 58 -272 -42 -47 -82 -66 -142 -68 -105 -2 -178 65 -184 169 -4 73 16 115
77 163 55 41 123 44 191 8z m-3784 -481 c88 -57 84 -203 -7 -251 -99 -51 -209
19 -209 132 0 108 127 178 216 119z m3638 -9 c109 -83 45 -256 -94 -256 -113
0 -173 106 -120 211 42 82 139 103 214 45z m-2778 -65 c50 -31 77 -84 72 -140
-8 -82 -63 -131 -148 -131 -84 0 -140 56 -140 141 0 110 125 186 216 130z m41
-448 c19 -9 46 -33 60 -54 64 -97 5 -216 -114 -226 -156 -13 -214 208 -73 279
44 22 82 23 127 1z m1350 -499 c53 -34 78 -109 57 -170 -51 -150 -264 -127
-281 30 -14 118 125 204 224 140z m-1333 -273 c67 -42 93 -149 50 -209 -30
-41 -101 -73 -146 -66 -50 9 -105 56 -118 103 -33 124 107 238 214 172z"/>
<path d="M4484 7841 c-86 -39 -127 -124 -104 -212 40 -149 198 -193 306 -85
77 76 79 175 5 254 -56 61 -132 77 -207 43z"/>
<path d="M5385 7841 c-118 -55 -151 -202 -66 -294 48 -52 103 -70 177 -56 177
33 206 266 43 349 -48 25 -102 25 -154 1z"/>
<path d="M3365 7701 c-144 -37 -198 -182 -109 -298 61 -80 188 -95 269 -31 96
75 82 252 -25 308 -45 23 -96 31 -135 21z"/>
<path d="M6701 7695 c-152 -48 -179 -243 -44 -335 80 -55 206 -30 260 51 98
149 -45 337 -216 284z"/>
<path d="M5480 7195 l0 -205 175 0 175 0 0 199 0 198 -67 6 c-38 4 -116 7
-175 7 l-108 0 0 -205z"/>
</g>
</svg>
